<svg width="30" height="32" viewBox="0 0 30 32" fill="none" xmlns="http://www.w3.org/2000/svg">
<mask id="path-1-inside-1_53_996" fill="white">
<path fill-rule="evenodd" clip-rule="evenodd" d="M15.8589 31.1781L15.8427 31.1811L15.7377 31.2328L15.7082 31.2387L15.6875 31.2328L15.5825 31.1811C15.5668 31.1762 15.5549 31.1786 15.547 31.1885L15.5411 31.2033L15.516 31.8359L15.5234 31.8655L15.5382 31.8847L15.6919 31.9941L15.7141 32L15.7318 31.9941L15.8855 31.8847L15.9033 31.861L15.9092 31.8359L15.8841 31.2047C15.8801 31.189 15.8717 31.1801 15.8589 31.1781ZM16.2507 31.0111L16.2314 31.014L15.958 31.1515L15.9432 31.1663L15.9388 31.1826L15.9654 31.8182L15.9728 31.8359L15.9846 31.8463L16.2817 31.9837C16.3004 31.9886 16.3147 31.9847 16.3246 31.9719L16.3305 31.9512L16.2802 31.0436C16.2753 31.0259 16.2654 31.015 16.2507 31.0111ZM15.1938 31.014C15.1872 31.0101 15.1795 31.0088 15.172 31.0105C15.1646 31.0121 15.1581 31.0166 15.1539 31.0229L15.145 31.0436L15.0947 31.9512C15.0957 31.9689 15.1041 31.9808 15.1199 31.9867L15.142 31.9837L15.4391 31.8463L15.4539 31.8344L15.4598 31.8182L15.485 31.1826L15.4805 31.1648L15.4657 31.15L15.1938 31.014Z"/>
</mask>
<path d="M15.8589 31.1781L16.1631 29.2014L15.8313 29.1503L15.501 29.2104L15.8589 31.1781ZM15.8427 31.1811L15.4848 29.2134L15.2094 29.2634L14.9584 29.3872L15.8427 31.1811ZM15.7377 31.2328L16.1299 33.194L16.3869 33.1426L16.622 33.0267L15.7377 31.2328ZM15.7082 31.2387L15.1588 33.1618L15.6249 33.295L16.1004 33.1999L15.7082 31.2387ZM15.6875 31.2328L14.8032 33.0267L14.9648 33.1064L15.1381 33.1559L15.6875 31.2328ZM15.5825 31.1811L16.4668 29.3872L16.3274 29.3185L16.1791 29.2721L15.5825 31.1811ZM15.547 31.1885L13.9853 29.9391L13.8001 30.1705L13.6901 30.4457L15.547 31.1885ZM15.5411 31.2033L13.6842 30.4605L13.5564 30.78L13.5427 31.1239L15.5411 31.2033ZM15.516 31.8359L13.5176 31.7565L13.5062 32.0429L13.5757 32.321L15.516 31.8359ZM15.5234 31.8655L13.5831 32.3505L13.6841 32.7547L13.9381 33.0849L15.5234 31.8655ZM15.5382 31.8847L13.9529 33.1041L14.1351 33.341L14.3787 33.5143L15.5382 31.8847ZM15.6919 31.9941L14.5324 33.6237L14.8271 33.8334L15.1766 33.9266L15.6919 31.9941ZM15.7141 32L15.1988 33.9325L15.7779 34.0869L16.3465 33.8974L15.7141 32ZM15.7318 31.9941L16.3642 33.8915L16.6478 33.7969L16.8913 33.6237L15.7318 31.9941ZM15.8855 31.8847L17.045 33.5143L17.2988 33.3338L17.4856 33.0847L15.8855 31.8847ZM15.9033 31.861L17.5033 33.061L17.7543 32.7263L17.8501 32.3191L15.9033 31.861ZM15.9092 31.8359L17.856 32.2939L17.9185 32.0287L17.9076 31.7563L15.9092 31.8359ZM15.8841 31.2047L17.8825 31.1252L17.8743 30.9194L17.8244 30.7197L15.8841 31.2047ZM16.2507 31.0111L16.766 29.0786L16.361 28.9706L15.9467 29.0343L16.2507 31.0111ZM16.2314 31.014L15.9275 29.0373L15.6153 29.0853L15.3331 29.2271L16.2314 31.014ZM15.958 31.1515L15.0597 29.3646L14.7717 29.5094L14.5438 29.7373L15.958 31.1515ZM15.9432 31.1663L14.529 29.7521L14.1534 30.1277L14.0136 30.6402L15.9432 31.1663ZM15.9388 31.1826L14.0092 30.6564L13.9275 30.956L13.9405 31.2662L15.9388 31.1826ZM15.9654 31.8182L13.9671 31.9018L13.982 32.2582L14.1192 32.5875L15.9654 31.8182ZM15.9728 31.8359L14.1266 32.6052L14.3056 33.0347L14.6558 33.3411L15.9728 31.8359ZM15.9846 31.8463L14.6676 33.3514L14.8839 33.5407L15.1447 33.6614L15.9846 31.8463ZM16.2817 31.9837L15.4419 33.7988L15.602 33.873L15.7727 33.9179L16.2817 31.9837ZM16.3246 31.9719L17.9098 33.1913L18.1427 32.8886L18.2476 32.5213L16.3246 31.9719ZM16.3305 31.9512L18.2535 32.5006L18.346 32.1768L18.3274 31.8406L16.3305 31.9512ZM16.2802 31.0436L18.2772 30.933L18.2652 30.7169L18.2073 30.5083L16.2802 31.0436ZM15.1938 31.014L14.1572 32.7245L14.2267 32.7666L14.2993 32.8029L15.1938 31.014ZM15.1539 31.0229L13.4904 29.9125L13.3882 30.0657L13.3156 30.235L15.1539 31.0229ZM15.145 31.0436L13.3067 30.2557L13.1676 30.5804L13.148 30.933L15.145 31.0436ZM15.0947 31.9512L13.0978 31.8406L13.0917 31.9514L13.0978 32.0621L15.0947 31.9512ZM15.1199 31.9867L14.4176 33.8593L14.8872 34.0354L15.3843 33.9691L15.1199 31.9867ZM15.142 31.9837L15.4065 33.9662L15.7068 33.9261L15.9819 33.7988L15.142 31.9837ZM15.4391 31.8463L16.279 33.6614L16.4991 33.5595L16.6885 33.408L15.4391 31.8463ZM15.4539 31.8344L16.7032 33.3962L17.1417 33.0455L17.3335 32.5179L15.4539 31.8344ZM15.4598 31.8182L17.3394 32.5016L17.446 32.2087L17.4583 31.8972L15.4598 31.8182ZM15.485 31.1826L17.4834 31.2616L17.4947 30.9753L17.4252 30.6974L15.485 31.1826ZM15.4805 31.1648L17.4208 30.6797L17.2864 30.1423L16.8947 29.7506L15.4805 31.1648ZM15.4657 31.15L16.88 29.7358L16.6505 29.5063L16.3602 29.3612L15.4657 31.15ZM15.8589 31.1781L15.501 29.2104L15.4848 29.2134L15.8427 31.1811L16.2006 33.1488L16.2168 33.1458L15.8589 31.1781ZM15.8427 31.1811L14.9584 29.3872L14.8534 29.4389L15.7377 31.2328L16.622 33.0267L16.727 32.975L15.8427 31.1811ZM15.7377 31.2328L15.3455 29.2716L15.316 29.2776L15.7082 31.2387L16.1004 33.1999L16.1299 33.194L15.7377 31.2328ZM15.7082 31.2387L16.2576 29.3157L16.2369 29.3098L15.6875 31.2328L15.1381 33.1559L15.1588 33.1618L15.7082 31.2387ZM15.6875 31.2328L16.5718 29.4389L16.4668 29.3872L15.5825 31.1811L14.6982 32.975L14.8032 33.0267L15.6875 31.2328ZM15.5825 31.1811L16.1791 29.2721C15.9602 29.2037 15.5937 29.1297 15.154 29.2212C14.6712 29.3218 14.2657 29.5886 13.9853 29.9391L15.547 31.1885L17.1088 32.4379C16.8362 32.7785 16.4406 33.0391 15.9696 33.1372C15.5418 33.2263 15.189 33.1535 14.986 33.09L15.5825 31.1811ZM15.547 31.1885L13.6901 30.4457L13.6842 30.4605L15.5411 31.2033L17.3981 31.946L17.404 31.9312L15.547 31.1885ZM15.5411 31.2033L13.5427 31.1239L13.5176 31.7565L15.516 31.8359L17.5144 31.9153L17.5396 31.2826L15.5411 31.2033ZM15.516 31.8359L13.5757 32.321L13.5831 32.3505L15.5234 31.8655L17.4637 31.3804L17.4563 31.3508L15.516 31.8359ZM15.5234 31.8655L13.9381 33.0849L13.9529 33.1041L15.5382 31.8847L17.1234 30.6653L17.1087 30.6461L15.5234 31.8655ZM15.5382 31.8847L14.3787 33.5143L14.5324 33.6237L15.6919 31.9941L16.8514 30.3645L16.6977 30.2551L15.5382 31.8847ZM15.6919 31.9941L15.1766 33.9266L15.1988 33.9325L15.7141 32L16.2294 30.0675L16.2072 30.0616L15.6919 31.9941ZM15.7141 32L16.3465 33.8974L16.3642 33.8915L15.7318 31.9941L15.0994 30.0967L15.0817 30.1026L15.7141 32ZM15.7318 31.9941L16.8913 33.6237L17.045 33.5143L15.8855 31.8847L14.726 30.2551L14.5723 30.3645L15.7318 31.9941ZM15.8855 31.8847L17.4856 33.0847L17.5033 33.061L15.9033 31.861L14.3033 30.6611L14.2855 30.6847L15.8855 31.8847ZM15.9033 31.861L17.8501 32.3191L17.856 32.2939L15.9092 31.8359L13.9624 31.3779L13.9564 31.403L15.9033 31.861ZM15.9092 31.8359L17.9076 31.7563L17.8825 31.1252L15.8841 31.2047L13.8856 31.2843L13.9108 31.9155L15.9092 31.8359ZM15.8841 31.2047L17.8244 30.7197C17.7659 30.4857 17.6341 30.1363 17.3289 29.813C16.9993 29.4641 16.5798 29.2655 16.1631 29.2014L15.8589 31.1781L15.5548 33.1549C15.1509 33.0927 14.7419 32.8995 14.4208 32.5595C14.1239 32.2451 13.9983 31.908 13.9438 31.6898L15.8841 31.2047ZM16.2507 31.0111L15.9467 29.0343L15.9275 29.0373L16.2314 31.014L16.5354 32.9908L16.5546 32.9879L16.2507 31.0111ZM16.2314 31.014L15.3331 29.2271L15.0597 29.3646L15.958 31.1515L16.8563 32.9384L17.1297 32.801L16.2314 31.014ZM15.958 31.1515L14.5438 29.7373L14.529 29.7521L15.9432 31.1663L17.3574 32.5805L17.3722 32.5657L15.958 31.1515ZM15.9432 31.1663L14.0136 30.6402L14.0092 30.6564L15.9388 31.1826L17.8683 31.7087L17.8727 31.6924L15.9432 31.1663ZM15.9388 31.1826L13.9405 31.2662L13.9671 31.9018L15.9654 31.8182L17.9636 31.7345L17.937 31.0989L15.9388 31.1826ZM15.9654 31.8182L14.1192 32.5875L14.1266 32.6052L15.9728 31.8359L17.8189 31.0666L17.8115 31.0489L15.9654 31.8182ZM15.9728 31.8359L14.6558 33.3411L14.6676 33.3514L15.9846 31.8463L17.3016 30.3411L17.2897 30.3307L15.9728 31.8359ZM15.9846 31.8463L15.1447 33.6614L15.4419 33.7988L16.2817 31.9837L17.1215 30.1686L16.8244 30.0311L15.9846 31.8463ZM16.2817 31.9837L15.7727 33.9179C16.0216 33.9834 16.4019 34.0328 16.8382 33.9125C17.3025 33.7844 17.6653 33.5091 17.9098 33.1913L16.3246 31.9719L14.7393 30.7525C14.9739 30.4475 15.3247 30.1806 15.7747 30.0565C16.1967 29.94 16.5605 29.989 16.7907 30.0496L16.2817 31.9837ZM16.3246 31.9719L18.2476 32.5213L18.2535 32.5006L16.3305 31.9512L14.4074 31.4018L14.4015 31.4225L16.3246 31.9719ZM16.3305 31.9512L18.3274 31.8406L18.2772 30.933L16.2802 31.0436L14.2833 31.1542L14.3335 32.0618L16.3305 31.9512ZM16.2802 31.0436L18.2073 30.5083C18.0579 29.9708 17.6149 29.305 16.766 29.0786L16.2507 31.0111L15.7353 32.9436C15.3888 32.8512 15.0546 32.6594 14.7893 32.3676C14.5369 32.0899 14.4135 31.7959 14.3532 31.5789L16.2802 31.0436ZM15.1938 31.014L16.2303 29.3036C15.7829 29.0325 15.2483 28.9447 14.7382 29.0581L15.172 31.0105L15.6059 32.9628C15.1106 33.0729 14.5916 32.9877 14.1572 32.7245L15.1938 31.014ZM15.172 31.0105L14.7382 29.0581C14.2279 29.1715 13.7808 29.4775 13.4904 29.9125L15.1539 31.0229L16.8173 32.1333C16.5353 32.5557 16.1013 32.8527 15.6059 32.9628L15.172 31.0105ZM15.1539 31.0229L13.3156 30.235L13.3067 30.2557L15.145 31.0436L16.9832 31.8315L16.9921 31.8108L15.1539 31.0229ZM15.145 31.0436L13.148 30.933L13.0978 31.8406L15.0947 31.9512L17.0917 32.0618L17.1419 31.1542L15.145 31.0436ZM15.0947 31.9512L13.0978 32.0621C13.1144 32.3617 13.2035 32.7536 13.4697 33.1294C13.7409 33.5122 14.0974 33.7393 14.4176 33.8593L15.1199 31.9867L15.8221 30.114C16.1265 30.2282 16.471 30.4464 16.7338 30.8173C16.9916 31.1813 17.076 31.5584 17.0916 31.8403L15.0947 31.9512ZM15.1199 31.9867L15.3843 33.9691L15.4065 33.9662L15.142 31.9837L14.8776 30.0013L14.8554 30.0042L15.1199 31.9867ZM15.142 31.9837L15.9819 33.7988L16.279 33.6614L15.4391 31.8463L14.5993 30.0311L14.3022 30.1686L15.142 31.9837ZM15.4391 31.8463L16.6885 33.408L16.7032 33.3962L15.4539 31.8344L14.2046 30.2726L14.1898 30.2845L15.4391 31.8463ZM15.4539 31.8344L17.3335 32.5179L17.3394 32.5016L15.4598 31.8182L13.5802 31.1347L13.5743 31.151L15.4539 31.8344ZM15.4598 31.8182L17.4583 31.8972L17.4834 31.2616L15.485 31.1826L13.4865 31.1035L13.4614 31.7392L15.4598 31.8182ZM15.485 31.1826L17.4252 30.6974L17.4208 30.6797L15.4805 31.1648L13.5403 31.65L13.5447 31.6677L15.485 31.1826ZM15.4805 31.1648L16.8947 29.7506L16.88 29.7358L15.4657 31.15L14.0515 32.5643L14.0663 32.579L15.4805 31.1648ZM15.4657 31.15L16.3602 29.3612L16.0882 29.2252L15.1938 31.014L14.2993 32.8029L14.5713 32.9389L15.4657 31.15Z" fill="#0477A6" mask="url(#path-1-inside-1_53_996)"/>
<path d="M6.2334 1.00684C6.43441 1.02895 6.62692 1.10258 6.79102 1.2207V1.22168C8.98348 2.81948 10.5099 5.24687 11.9531 7.3584V7.35938C12.1226 7.60707 12.1955 7.90838 12.1572 8.20605C12.1201 8.49436 11.9803 8.759 11.7656 8.9541L8.91992 11.0693C8.63166 11.281 8.41736 11.5765 8.30664 11.9141L8.26562 12.0635C8.17276 12.4668 8.22922 12.8901 8.4248 13.2549L8.42969 13.2646C9.11013 14.5008 10.325 16.3551 11.7441 17.7744C13.1618 19.1921 15.0984 20.4818 16.4072 21.2314L16.4141 21.2363C16.7963 21.4509 17.2468 21.5102 17.6719 21.4033C18.0919 21.2976 18.455 21.036 18.6904 20.6729L18.6914 20.6738L20.5459 17.8506C20.7353 17.6084 21.0094 17.4466 21.3135 17.3975C21.586 17.3535 21.8644 17.4027 22.1035 17.5361L22.2031 17.5986C24.3199 19.064 26.603 20.5789 28.2666 22.708V22.709C28.3954 22.8748 28.4774 23.072 28.5039 23.2803C28.5304 23.4887 28.5003 23.7007 28.417 23.8936L28.416 23.8955C27.3048 26.4884 24.5048 28.6168 21.748 28.5156C19.8774 28.4468 14.4004 27.7293 8.51074 22.1367L7.93945 21.5801C1.83718 15.4764 1.07538 9.70379 1.00293 7.77051C0.903738 5.02616 3.05862 2.2028 5.63867 1.09668L5.64062 1.0957C5.82712 1.01521 6.03148 0.984699 6.2334 1.00684Z" stroke="#0477A6" stroke-width="2"/>
</svg>
