<svg width="27" height="32" viewBox="0 0 27 32" fill="none" xmlns="http://www.w3.org/2000/svg">
<path d="M4.64746 4.59473C9.51985 -0.198123 17.4264 -0.198123 22.2988 4.59473L22.3018 4.59668C23.4556 5.72396 24.3721 7.07093 24.998 8.55762C25.624 10.0444 25.9463 11.6417 25.9463 13.2549C25.9462 14.8679 25.624 16.4646 24.998 17.9512C24.3721 19.4379 23.4556 20.7848 22.3018 21.9121L22.2988 21.9141L13.4727 30.5967L4.64746 21.9141L4.43164 21.6982C3.3778 20.616 2.53513 19.345 1.94824 17.9512C1.32234 16.4646 1.00005 14.8678 1 13.2549C1 11.6417 1.32225 10.0444 1.94824 8.55762C2.53515 7.16371 3.37776 5.89285 4.43164 4.81055L4.64746 4.59473ZM13.4727 8.2627C12.0826 8.2627 10.7707 8.8064 9.78809 9.78906H9.78711C8.81139 10.7669 8.2627 12.0923 8.2627 13.4736C8.26275 14.8549 8.81146 16.1795 9.78711 17.1572L9.78809 17.1592C10.7717 18.1407 12.082 18.6836 13.4727 18.6836C14.8626 18.6835 16.1746 18.1408 17.1572 17.1582L17.1582 17.1572C18.1337 16.1795 18.6816 14.8548 18.6816 13.4736C18.6816 12.0923 18.1339 10.7669 17.1582 9.78906H17.1572C16.1746 8.80645 14.8626 8.26275 13.4727 8.2627Z" stroke="#0477A6" stroke-width="2"/>
</svg>
