<svg width="32" height="42" viewBox="0 0 32 42" fill="none" xmlns="http://www.w3.org/2000/svg">
<path fill-rule="evenodd" clip-rule="evenodd" d="M15.9617 40.9975L17.5351 39.2246C19.3206 37.1815 20.9273 35.2373 22.3553 33.392L23.5348 31.836C28.4605 25.2013 30.9233 19.9373 30.9233 16.0439C30.9233 7.73524 24.2255 1 15.9617 1C7.69784 1 1 7.73524 1 16.0439C1 19.9373 3.46286 25.2021 8.38857 31.8385L9.56804 33.3945C11.6067 36.0061 13.7393 38.5404 15.9617 40.9975Z" stroke="#2A4B5C" stroke-width="2" stroke-linecap="round" stroke-linejoin="round"/>
<path d="M15.9625 22.1956C19.4055 22.1956 22.1966 19.4045 22.1966 15.9616C22.1966 12.5186 19.4055 9.72754 15.9625 9.72754C12.5196 9.72754 9.72852 12.5186 9.72852 15.9616C9.72852 19.4045 12.5196 22.1956 15.9625 22.1956Z" stroke="#2A4B5C" stroke-width="2" stroke-linecap="round" stroke-linejoin="round"/>
</svg>
