<svg width="40" height="36" viewBox="0 0 40 36" fill="none" xmlns="http://www.w3.org/2000/svg">
<path d="M19.3687 33.9176C19.63 33.9176 19.8979 33.8589 20.1726 33.7416C20.4472 33.6243 20.6692 33.481 20.8385 33.3117L36.4285 17.7197C36.9311 17.2171 37.319 16.7038 37.5923 16.1799C37.8643 15.6533 38.0003 15.076 38.0003 14.4481C38.0003 13.8122 37.8643 13.195 37.5923 12.5964C37.319 11.9964 36.9311 11.4498 36.4285 10.9566L28.9294 3.45755C28.4348 2.95495 27.9262 2.58633 27.4036 2.3517C26.8824 2.11706 26.3038 1.99974 25.6679 1.99974C25.0399 1.99974 24.4567 2.11706 23.9181 2.3517C23.3795 2.58633 22.8722 2.95428 22.3963 3.45555L20.6525 5.19933L24.352 8.90884C24.7493 9.29946 25.0459 9.7434 25.2419 10.2407C25.4366 10.7379 25.5339 11.2425 25.5339 11.7545C25.5339 12.7957 25.1933 13.6569 24.512 14.3381C23.8308 15.0194 22.9702 15.3593 21.9303 15.358C21.4171 15.358 20.9165 15.28 20.4285 15.124C19.9406 14.9681 19.5013 14.6948 19.1107 14.3041L16.1691 11.3765C15.9385 11.1459 15.6438 11.0306 15.2852 11.0306C14.9252 11.0306 14.63 11.1459 14.3993 11.3765L6.65032 19.1255C6.44901 19.3282 6.2977 19.5581 6.19638 19.8154C6.09506 20.0727 6.0444 20.3327 6.0444 20.5953C6.0444 21.0673 6.19571 21.4559 6.49834 21.7612C6.79963 22.0678 7.18625 22.2211 7.65819 22.2211C7.91949 22.2211 8.18746 22.1625 8.46209 22.0451C8.73672 21.9265 8.95869 21.7825 9.128 21.6132L14.7573 15.9839C14.9439 15.7973 15.1719 15.6953 15.4412 15.678C15.7105 15.6606 15.9544 15.7626 16.1731 15.9839C16.3864 16.1972 16.493 16.4332 16.493 16.6918C16.493 16.9505 16.3864 17.1864 16.1731 17.3997L10.5538 23.029C10.3512 23.2317 10.1992 23.4616 10.0979 23.7189C9.99789 23.9776 9.94789 24.2375 9.94789 24.4988C9.94789 24.9454 10.1052 25.326 10.4198 25.6407C10.7345 25.9553 11.1151 26.1133 11.5617 26.1146C11.823 26.1146 12.0909 26.0553 12.3656 25.9366C12.6402 25.818 12.8622 25.6747 13.0315 25.5067L19.1227 19.4275C19.3093 19.2395 19.5366 19.1369 19.8046 19.1195C20.0726 19.1022 20.3165 19.2042 20.5365 19.4255C20.7498 19.6388 20.8565 19.8748 20.8565 20.1334C20.8565 20.392 20.7498 20.628 20.5365 20.8413L14.4573 26.9325C14.2813 27.1018 14.136 27.3238 14.0214 27.5984C13.9067 27.8731 13.8494 28.141 13.8494 28.4023C13.8494 28.8476 14.0074 29.2275 14.3233 29.5422C14.6393 29.8595 15.0199 30.0181 15.4652 30.0181C15.7265 30.0181 15.9864 29.9674 16.2451 29.8661C16.5037 29.7648 16.733 29.6128 16.933 29.4102L23.0262 23.331C23.2128 23.143 23.4401 23.0403 23.7081 23.023C23.9761 23.007 24.2207 23.109 24.442 23.329C24.654 23.5423 24.76 23.7783 24.76 24.0369C24.76 24.2955 24.6533 24.5315 24.44 24.7448L18.3508 30.834C18.1495 31.0366 17.9982 31.2799 17.8969 31.5639C17.7955 31.8479 17.7449 32.1072 17.7449 32.3418C17.7449 32.8137 17.9109 33.1944 18.2428 33.4837C18.5748 33.773 18.9507 33.9176 19.3707 33.9176M19.3587 35.9173C18.3308 35.9173 17.4509 35.5414 16.719 34.7895C15.9871 34.0376 15.6658 33.1084 15.7551 32.0018C14.622 32.0152 13.6787 31.6772 12.9255 30.988C12.1723 30.2987 11.8143 29.3362 11.8516 28.1004C10.6171 28.1137 9.64393 27.7604 8.93202 27.0405C8.22012 26.3206 7.89616 25.3727 7.96015 24.1969C6.8483 24.2102 5.91775 23.8969 5.16851 23.257C4.42061 22.6197 4.04666 21.7318 4.04666 20.5933C4.04666 20.0801 4.14598 19.5668 4.34462 19.0535C4.54326 18.5389 4.83656 18.087 5.22451 17.6977L13.0135 9.90872C13.6267 9.29679 14.3827 8.99084 15.2812 8.99084C16.1798 8.99084 16.9357 9.29746 17.5489 9.91072L20.4505 12.8123C20.6198 12.9896 20.8291 13.1356 21.0784 13.2503C21.3278 13.3649 21.6084 13.4216 21.9203 13.4203C22.3483 13.4203 22.7262 13.2709 23.0542 12.9723C23.3822 12.6737 23.5468 12.2844 23.5481 11.8045C23.5481 11.4925 23.4908 11.2125 23.3762 10.9646C23.2615 10.7153 23.1162 10.506 22.9402 10.3367L16.0611 3.45755C15.5652 2.95495 15.0499 2.58633 14.5153 2.3517C13.9807 2.11706 13.3954 1.99974 12.7595 1.99974C12.1316 1.99974 11.561 2.11706 11.0478 2.3517C10.5358 2.58633 10.0286 2.95495 9.52595 3.45755L3.43674 9.55676C2.73816 10.254 2.28889 11.1052 2.08891 12.1104C1.88894 13.1156 1.98026 14.0755 2.36288 14.9901C2.43753 15.2487 2.40421 15.4987 2.26289 15.74C2.12158 15.9813 1.9216 16.1346 1.66297 16.1999C1.40434 16.2652 1.1477 16.2306 0.893068 16.0959C0.638435 15.9613 0.478455 15.7633 0.413131 15.502C-0.0174802 14.2088 -0.111468 12.903 0.131167 11.5845C0.373802 10.266 1.00039 9.10149 2.01092 8.09095L8.05814 2.04174C8.75538 1.35116 9.49329 0.837892 10.2719 0.501935C11.0504 0.167312 11.8923 0 12.7975 0C13.7027 0 14.5373 0.167978 15.3012 0.503935C16.0664 0.838558 16.7943 1.35116 17.4849 2.04174L19.2247 3.78351L20.9685 2.04174C21.6657 1.35116 22.3969 0.837892 23.1622 0.501935C23.9274 0.167312 24.7626 0 25.6679 0C26.5731 0 27.415 0.167978 28.1935 0.503935C28.9708 0.838558 29.704 1.35116 30.3932 2.04174L37.8443 9.49077C38.5335 10.18 39.0655 10.9539 39.4401 11.8125C39.8147 12.671 40.0013 13.5529 40 14.4581C40 15.3647 39.8134 16.1999 39.4401 16.9638C39.0668 17.7277 38.5349 18.4556 37.8443 19.1475L22.2523 34.7255C21.8377 35.1414 21.3857 35.4441 20.8965 35.6334C20.4085 35.8227 19.8973 35.9173 19.3587 35.9173Z" fill="#2A4B5C"/>
</svg>
