<svg width="34" height="42" viewBox="0 0 34 42" fill="none" xmlns="http://www.w3.org/2000/svg">
<path d="M9.79167 2.10549C12.7396 0.277521 15.3156 1.01351 16.8615 2.18748C17.4955 2.66747 17.8135 2.90747 17.9995 2.90747C18.1855 2.90747 18.5035 2.66747 19.1375 2.18748C20.6835 1.01351 23.2574 0.277521 26.2074 2.10549C30.0793 4.50544 30.9553 12.4173 22.0274 19.0932C20.3255 20.3651 19.4755 21.0011 17.9995 21.0011C16.5235 21.0011 15.6736 20.3651 13.9736 19.0932C5.04376 12.4173 5.91974 4.50344 9.79167 2.10549Z" stroke="#2A4B5C" stroke-width="2" stroke-linecap="round"/>
<path d="M1 25.001H5.78991C6.3779 25.001 6.95789 25.133 7.48388 25.389L11.5678 27.3649C12.0938 27.6189 12.6738 27.7509 13.2638 27.7509H15.3477C17.3637 27.7509 18.9997 29.3329 18.9997 31.2849C18.9997 31.3649 18.9457 31.4329 18.8677 31.4549L13.7858 32.8608C12.8739 33.1127 11.9015 33.0246 11.0498 32.6128L6.68389 30.5009" stroke="#2A4B5C" stroke-width="2" stroke-linecap="round" stroke-linejoin="round"/>
<path d="M18.9997 30.001L28.1855 27.179C28.9852 26.9337 29.8419 26.9472 30.6335 27.2176C31.4251 27.488 32.111 28.0016 32.5934 28.685C33.3314 29.705 33.0314 31.169 31.9554 31.789L16.9257 40.4628C16.4557 40.7347 15.9353 40.9081 15.3962 40.9724C14.8571 41.0367 14.3105 40.9905 13.7898 40.8368L1 37.0409" stroke="#2A4B5C" stroke-width="2" stroke-linecap="round" stroke-linejoin="round"/>
</svg>
