<svg width="41" height="41" viewBox="0 0 41 41" fill="none" xmlns="http://www.w3.org/2000/svg">
<path d="M36 15.1667V31.8333M9.33332 15.1667V31.8333M4.33332 15.1667V31.8333M31 15.1667V31.8333M3.49999 35.1667H36.8333M0.166656 39.3333H40.1667M20.1667 18.5H18.5C18.058 18.5 17.634 18.6756 17.3215 18.9882C17.0089 19.3007 16.8333 19.7246 16.8333 20.1667V20.7917C16.8333 21.1523 16.9503 21.5032 17.1667 21.7917C17.383 22.0802 17.6871 22.2907 18.0333 22.3917L22.3 23.6367C22.6462 23.7376 22.9503 23.9482 23.1667 24.2367C23.383 24.5252 23.5 24.876 23.5 25.2367V26.8333C23.5 27.2754 23.3244 27.6993 23.0118 28.0118C22.6993 28.3244 22.2754 28.5 21.8333 28.5H20.1667M20.1667 18.5H21.8333C22.2754 18.5 22.6993 18.6756 23.0118 18.9882C23.3244 19.3007 23.5 19.7246 23.5 20.1667V21M20.1667 18.5V15.1667M20.1667 28.5H18.5C18.058 28.5 17.634 28.3244 17.3215 28.0118C17.0089 27.6993 16.8333 27.2754 16.8333 26.8333V26M20.1667 28.5V31.8333M39.3333 10.5833V11.8333H0.99999V10.5833C9.33332 7.66667 14.3333 5.16667 19.75 1H20.5833C26 5.16667 31 7.66667 39.3333 10.5833Z" stroke="#0477A6" stroke-width="2"/>
</svg>
