<svg width="42" height="42" viewBox="0 0 42 42" fill="none" xmlns="http://www.w3.org/2000/svg">
<path d="M35.0401 25.606L32.6201 31M35.0401 25.606H29.0001M35.0401 25.606C36.5701 22.2 37.3341 20.496 36.8601 18.946C36.8157 18.7991 36.763 18.6548 36.7021 18.514C36.0661 17.032 34.4181 16.318 31.1201 14.888L25.4001 12.412C23.2301 11.472 22.1421 11 21.0001 11C19.8581 11 18.7701 11.47 16.5981 12.412L10.8801 14.888C7.58205 16.318 5.93405 17.032 5.29805 18.514C5.23639 18.6555 5.18297 18.8004 5.13805 18.948C4.66605 20.496 5.43005 22.2 6.95805 25.608M9.38005 31L6.96005 25.606H13.0001" stroke="#0477A6" stroke-width="2" stroke-linecap="round" stroke-linejoin="round"/>
<path d="M33.0001 15V13C33.0001 9.228 33.0001 7.344 31.8281 6.172C30.6561 5 28.7721 5 25.0001 5H17.0001C13.2281 5 11.3441 5 10.1721 6.172C9.00012 7.344 9.00012 9.228 9.00012 13V15M21.0001 5V1" stroke="#0477A6" stroke-width="2" stroke-linecap="round" stroke-linejoin="round"/>
<path d="M1.00012 39.3862C2.37012 41.4882 4.14212 41.4882 5.54612 39.3862C10.0601 32.4822 14.3601 44.3522 17.5461 39.4662C22.4061 32.1382 25.9021 44.8442 29.5461 39.3862C34.2981 32.1162 37.2601 44.1562 41.0001 40.1682" stroke="#0477A6" stroke-width="2" stroke-linecap="round"/>
</svg>
